<?xml version="1.0" encoding="utf-8"?>
<!-- Generator: Adobe Illustrator 22.0.1, SVG Export Plug-In . SVG Version: 6.00 Build 0)  -->
<svg version="1.1" xmlns="http://www.w3.org/2000/svg" xmlns:xlink="http://www.w3.org/1999/xlink" x="0px" y="0px"
	 viewBox="0 0 841.9 595.3" style="enable-background:new 0 0 841.9 595.3;" xml:space="preserve">
<style type="text/css">
	.st0{display:none;fill:url(#SVGID_1_);}
	.st1{fill:#E30613;}
	.st2{fill:#FFED00;}
	.st3{display:none;}
	.st4{display:inline;fill:url(#SVGID_2_);}
	.st5{display:inline;fill:url(#SVGID_3_);}
	.st6{display:inline;fill:url(#SVGID_4_);}
	.st7{display:none;fill:url(#SVGID_5_);}
	.st8{display:none;fill:url(#SVGID_6_);}
	.st9{fill:#3AAA35;stroke:#FFED00;}
	.st10{display:inline;fill:url(#SVGID_7_);}
	.st11{display:inline;fill:url(#SVGID_8_);}
	.st12{display:inline;fill:url(#SVGID_9_);}
	.st13{display:inline;fill:url(#SVGID_10_);}
	.st14{fill:none;stroke:#000000;stroke-miterlimit:10;}
	.st15{fill:#27348B;}
	.st16{font-family:'MyriadPro-Regular';}
	.st17{font-size:12px;}
</style>
<symbol  id="Icône_xA0_1_xA0_-_Supprimer" viewBox="-31 -25.6 62 51.3">
	
		<radialGradient id="SVGID_1_" cx="2566.8252" cy="28574.9434" r="20.9992" gradientTransform="matrix(1.4762 0 0 0.2143 -3789.1475 -6144.7451)" gradientUnits="userSpaceOnUse">
		<stop  offset="9.815950e-02" style="stop-color:#DFDCDB;stop-opacity:0.85"/>
		<stop  offset="1" style="stop-color:#FFFFFF;stop-opacity:0"/>
	</radialGradient>
	<path class="st0" d="M31-21.1c0-2.5-13.9-4.5-31-4.5c-17.1,0-31,2-31,4.5c0,2.5,13.9,4.5,31,4.5C17.1-16.6,31-18.7,31-21.1z"/>
	<g>
		<g>
			<polygon class="st1" points="0,-5.2 -13.5,-18.7 -21.8,-10.4 -8.3,3.1 -21.8,16.6 -13.5,24.9 0,11.4 13.5,24.9 21.8,16.6 
				8.3,3.1 21.8,-10.4 13.5,-18.7 			"/>
			<g>
				<path class="st2" d="M-13.5,24.2l12.8-12.8L0,10.7l0.7,0.7l12.8,12.8l7.6-7.6L8.3,3.8L7.6,3.1l0.7-0.7l12.8-12.8l-7.6-7.6
					L0.7-5.2L0-4.4l-0.7-0.7l-12.8-12.8l-7.6,7.6L-8.3,2.4l0.7,0.7l-0.7,0.7l-12.8,12.8L-13.5,24.2 M-13.5,25.6l-9-9L-9,3.1
					l-13.5-13.5l9-9L0-5.9l13.5-13.5l9,9L9,3.1l13.5,13.5l-9,9L0,12.1L-13.5,25.6L-13.5,25.6z"/>
			</g>
		</g>
		<g class="st3">
			<linearGradient id="SVGID_2_" gradientUnits="userSpaceOnUse" x1="-17.6955" y1="22.96" x2="-6.8196" y2="-13.1327">
				<stop  offset="0" style="stop-color:#FFFFFF"/>
				<stop  offset="1" style="stop-color:#010202"/>
			</linearGradient>
			<polygon class="st4" points="-12.5,23.2 -13.5,24.2 -21.1,16.6 -20,15.6 			"/>
			<linearGradient id="SVGID_3_" gradientUnits="userSpaceOnUse" x1="3.6056" y1="29.3775" x2="14.4781" y2="-6.7035">
				<stop  offset="0" style="stop-color:#FFFFFF"/>
				<stop  offset="1" style="stop-color:#010202"/>
			</linearGradient>
			<polygon class="st5" points="0.5,10.3 1.2,9.6 2,10.3 14.7,23 13.5,24.2 0.7,11.4 0,10.8 			"/>
			<linearGradient id="SVGID_4_" gradientUnits="userSpaceOnUse" x1="-21.5978" y1="21.7851" x2="-10.7242" y2="-14.2995">
				<stop  offset="0" style="stop-color:#FFFFFF"/>
				<stop  offset="1" style="stop-color:#010202"/>
			</linearGradient>
			<polygon class="st6" points="-7.1,1.2 -6.4,1.9 -7.1,2.6 -7.6,3.1 -8.3,2.4 -21.1,-10.4 -19.9,-11.6 			"/>
		</g>
		<linearGradient id="SVGID_5_" gradientUnits="userSpaceOnUse" x1="-4.1639" y1="36.1184" x2="4.8195" y2="-5.9393">
			<stop  offset="0" style="stop-color:#FFFFFF"/>
			<stop  offset="1" style="stop-color:#010202"/>
		</linearGradient>
		<path class="st7" d="M-7.6,3.1l-0.7-0.7l-0.9-0.9c6,2.4,12.8,4.4,20.3,5.8c0.3,0.1,0.6,0.1,0.9,0.2l9.1,9.1l-7.6,7.6L0.7,11.4
			L0,10.7l-0.7,0.7l-12.8,12.8l-7.6-7.6L-8.3,3.8L-7.6,3.1z"/>
	</g>
</symbol>
<symbol  id="Icône_xA0_3_xA0_-_Coche" viewBox="-61.7 -54.4 92.7 76.8">
	
		<radialGradient id="SVGID_6_" cx="2566.8252" cy="28580.293" r="20.9992" gradientTransform="matrix(1.4762 0 0 0.2143 -3789.1472 -6144.7451)" gradientUnits="userSpaceOnUse">
		<stop  offset="9.815950e-02" style="stop-color:#DFDCDB;stop-opacity:0.85"/>
		<stop  offset="1" style="stop-color:#FFFFFF;stop-opacity:0"/>
	</radialGradient>
	<ellipse class="st8" cx="0" cy="-20" rx="31" ry="4.5"/>
	<g>
		<polygon class="st9" points="-41.1,-40.8 -44.6,-37.2 -53.9,-46.5 -57.5,-42.9 -61,-46.4 -53.9,-53.6 -53.9,-53.5 -53.9,-53.6 		
			"/>
		<g class="st3">
			<linearGradient id="SVGID_7_" gradientUnits="userSpaceOnUse" x1="3.1108" y1="27.1602" x2="8.1107" y2="-13.3391">
				<stop  offset="0" style="stop-color:#FFFFFF"/>
				<stop  offset="1" style="stop-color:#010202"/>
			</linearGradient>
			<polygon class="st10" points="-6.4,-1.6 -5.7,-2.3 -5,-1.6 17.6,20.9 16.1,22.4 -6.4,-0.2 -7.1,-0.9 			"/>
			<linearGradient id="SVGID_8_" gradientUnits="userSpaceOnUse" x1="-21.747" y1="24.093" x2="-16.7469" y2="-16.4077">
				<stop  offset="0" style="stop-color:#FFFFFF"/>
				<stop  offset="1" style="stop-color:#010202"/>
			</linearGradient>
			<polygon class="st11" points="-14.9,6.9 -16.1,8.1 -23.6,0.6 -22.3,-0.6 			"/>
		</g>
		<g class="st3">
			<linearGradient id="SVGID_9_" gradientUnits="userSpaceOnUse" x1="-1.7138" y1="34.8558" x2="15.8419" y2="-4.7471">
				<stop  offset="0" style="stop-color:#FFFFFF"/>
				<stop  offset="1" style="stop-color:#010202"/>
			</linearGradient>
			<path class="st12" d="M8.6,5.5c2.2,0.4,4.4,0.8,6.6,1.1l8.3,8.3l-7.5,7.4L-3.8,2.4C0.1,3.6,4.3,4.7,8.6,5.5z"/>
			<linearGradient id="SVGID_10_" gradientUnits="userSpaceOnUse" x1="-26.4632" y1="23.8888" x2="-8.9048" y2="-15.7204">
				<stop  offset="0" style="stop-color:#FFFFFF"/>
				<stop  offset="1" style="stop-color:#010202"/>
			</linearGradient>
			<path class="st13" d="M-8.8,0.8l-7.3,7.3l-7.5-7.5l4.4-4.4C-16.1-2.2-12.6-0.6-8.8,0.8z"/>
		</g>
	</g>
</symbol>
<g id="Tableau">
	<rect x="65.8" y="41.8" class="st14" width="177.9" height="22"/>
	<rect x="243.7" y="41.8" class="st14" width="177.9" height="22"/>
	<rect x="421.5" y="41.8" class="st14" width="177.9" height="22"/>
	<rect x="599.4" y="41.8" class="st14" width="177.9" height="22"/>
	<rect x="65.8" y="63.8" class="st14" width="177.9" height="22"/>
	<rect x="243.7" y="63.8" class="st14" width="177.9" height="22"/>
	<rect x="421.5" y="63.8" class="st14" width="177.9" height="22"/>
	<rect x="599.4" y="63.8" class="st14" width="177.9" height="22"/>
	<rect x="65.8" y="107.8" class="st14" width="177.9" height="22"/>
	<rect x="243.7" y="107.8" class="st14" width="177.9" height="22"/>
	<rect x="421.5" y="107.8" class="st14" width="177.9" height="22"/>
	<rect x="599.4" y="107.8" class="st14" width="177.9" height="22"/>
	<rect x="65.8" y="239.9" class="st14" width="177.9" height="22"/>
	<rect x="243.7" y="239.9" class="st14" width="177.9" height="22"/>
	<rect x="421.5" y="239.9" class="st14" width="177.9" height="22"/>
	<rect x="599.4" y="239.9" class="st14" width="177.9" height="22"/>
	<rect x="65.8" y="261.9" class="st14" width="177.9" height="22"/>
	<rect x="243.7" y="261.9" class="st14" width="177.9" height="22"/>
	<rect x="421.5" y="261.9" class="st14" width="177.9" height="22"/>
	<rect x="599.4" y="261.9" class="st14" width="177.9" height="22"/>
	<rect x="65.8" y="283.9" class="st14" width="177.9" height="22"/>
	<rect x="243.7" y="283.9" class="st14" width="177.9" height="22"/>
	<rect x="421.5" y="283.9" class="st14" width="177.9" height="22"/>
	<rect x="599.4" y="283.9" class="st14" width="177.9" height="22"/>
	<rect x="65.8" y="327.9" class="st14" width="177.9" height="22"/>
	<rect x="243.7" y="327.9" class="st14" width="177.9" height="22"/>
	<rect x="421.5" y="327.9" class="st14" width="177.9" height="22"/>
	<rect x="599.4" y="327.9" class="st14" width="177.9" height="22"/>
	<rect x="65.8" y="349.9" class="st14" width="177.9" height="22"/>
	<rect x="243.7" y="349.9" class="st14" width="177.9" height="22"/>
	<rect x="421.5" y="349.9" class="st14" width="177.9" height="22"/>
	<rect x="599.4" y="349.9" class="st14" width="177.9" height="22"/>
	<rect x="65.8" y="371.9" class="st14" width="177.9" height="22"/>
	<rect x="243.7" y="371.9" class="st14" width="177.9" height="22"/>
	<rect x="421.5" y="371.9" class="st14" width="177.9" height="22"/>
	<rect x="599.4" y="371.9" class="st14" width="177.9" height="22"/>
	<rect x="65.8" y="393.9" class="st14" width="177.9" height="22"/>
	<rect x="243.7" y="393.9" class="st14" width="177.9" height="22"/>
	<rect x="421.5" y="393.9" class="st14" width="177.9" height="22"/>
	<rect x="599.4" y="393.9" class="st14" width="177.9" height="22"/>
	<rect x="65.8" y="415.9" class="st14" width="177.9" height="22"/>
	<rect x="243.7" y="415.9" class="st14" width="177.9" height="22"/>
	<rect x="421.5" y="415.9" class="st14" width="177.9" height="22"/>
	<rect x="599.4" y="415.9" class="st14" width="177.9" height="22"/>
	<rect x="65.8" y="437.9" class="st14" width="177.9" height="22"/>
	<rect x="243.7" y="437.9" class="st14" width="177.9" height="22"/>
	<rect x="421.5" y="437.9" class="st14" width="177.9" height="22"/>
	<rect x="599.4" y="437.9" class="st14" width="177.9" height="22"/>
	<rect x="65.8" y="459.9" class="st14" width="177.9" height="22"/>
	<rect x="243.7" y="459.9" class="st14" width="177.9" height="22"/>
	<rect x="421.5" y="459.9" class="st14" width="177.9" height="22"/>
	<rect x="599.4" y="459.9" class="st14" width="177.9" height="22"/>
	<rect x="65.8" y="481.9" class="st14" width="177.9" height="22"/>
	<rect x="243.7" y="481.9" class="st14" width="177.9" height="22"/>
	<rect x="421.5" y="481.9" class="st14" width="177.9" height="22"/>
	<rect x="599.4" y="481.9" class="st14" width="177.9" height="22"/>
	<rect x="65.8" y="503.9" class="st14" width="177.9" height="22"/>
	<rect x="243.7" y="503.9" class="st14" width="177.9" height="22"/>
	<rect x="421.5" y="503.9" class="st14" width="177.9" height="22"/>
	<rect x="599.4" y="503.9" class="st14" width="177.9" height="22"/>
	<rect x="65.8" y="525.9" class="st14" width="177.9" height="22"/>
	<rect x="243.7" y="525.9" class="st14" width="177.9" height="22"/>
	<rect x="421.5" y="525.9" class="st14" width="177.9" height="22"/>
	<rect x="599.4" y="525.9" class="st14" width="177.9" height="22"/>
	<line class="st14" x1="421.5" y1="118.9" x2="421.5" y2="217.9"/>
	<line class="st14" x1="599.4" y1="129.9" x2="599.4" y2="217.9"/>
	<line class="st14" x1="777.3" y1="129.9" x2="777.3" y2="217.9"/>
	<line class="st14" x1="65.8" y1="217.9" x2="65.8" y2="239.9"/>
	<line class="st14" x1="65.8" y1="217.9" x2="777.3" y2="217.9"/>
	<line class="st14" x1="777.3" y1="239.9" x2="777.3" y2="217.9"/>
	<line class="st14" x1="65.8" y1="129.9" x2="65.8" y2="217.9"/>
	<line class="st14" x1="243.7" y1="129.9" x2="243.7" y2="217.4"/>
	<line class="st14" x1="65.8" y1="85.8" x2="65.8" y2="107.8"/>
	<line class="st14" x1="777.3" y1="85.8" x2="777.3" y2="107.8"/>
	<line class="st14" x1="777.3" y1="305.9" x2="777.3" y2="327.9"/>
	<line class="st14" x1="65.8" y1="305.9" x2="65.8" y2="327.9"/>
</g>
<g id="Calque_2">
	<g id="KVM">
		<text transform="matrix(1 0 0 1 664.4325 56.2431)" class="st15 st16 st17">KVM / QEMU</text>
		
			<use xlink:href="#Icône_xA0_3_xA0_-_Coche"  width="92.7" height="76.8" id="XMLID_45_" x="-61.7" y="-54.4" transform="matrix(1 0 0 -1 743.887 74.3843)" style="overflow:visible;"/>
		
			<use xlink:href="#Icône_xA0_3_xA0_-_Coche"  width="92.7" height="76.8" id="XMLID_44_" x="-61.7" y="-54.4" transform="matrix(1 0 0 -1 742.887 227.3843)" style="overflow:visible;"/>
		
			<use xlink:href="#Icône_xA0_3_xA0_-_Coche"  width="92.7" height="76.8" id="XMLID_43_" x="-61.7" y="-54.4" transform="matrix(1 0 0 -1 742.887 293.3843)" style="overflow:visible;"/>
		
			<use xlink:href="#Icône_xA0_3_xA0_-_Coche"  width="92.7" height="76.8" id="XMLID_42_" x="-61.7" y="-54.4" transform="matrix(1 0 0 -1 742.887 315.3843)" style="overflow:visible;"/>
		
			<use xlink:href="#Icône_xA0_3_xA0_-_Coche"  width="92.7" height="76.8" id="XMLID_41_" x="-61.7" y="-54.4" transform="matrix(1 0 0 -1 742.887 359.3843)" style="overflow:visible;"/>
		
			<use xlink:href="#Icône_xA0_3_xA0_-_Coche"  width="92.7" height="76.8" id="XMLID_40_" x="-61.7" y="-54.4" transform="matrix(1 0 0 -1 742.887 381.3843)" style="overflow:visible;"/>
		<text transform="matrix(1 0 0 1 667.1348 77.5405)" class="st16 st17">GPL / LGPL</text>
		<text transform="matrix(1 0 0 1 440.7295 145.0811)"><tspan x="0" y="0" class="st16 st17">VDI (VirtualBox)</tspan><tspan x="0" y="14.4" class="st16 st17">VMDK (VmWare)</tspan><tspan x="0" y="28.8" class="st16 st17">VHD (Windows Virtual PC)</tspan></text>
		
			<use xlink:href="#Icône_xA0_1_xA0_-_Supprimer"  width="62" height="51.3" id="XMLID_39_" x="-31" y="-25.6" transform="matrix(0.3707 0 0 -0.3707 690.8464 252.0171)" style="overflow:visible;"/>
		
			<use xlink:href="#Icône_xA0_1_xA0_-_Supprimer"  width="62" height="51.3" id="XMLID_38_" x="-31" y="-25.6" transform="matrix(0.3707 0 0 -0.3707 690.8464 295.0171)" style="overflow:visible;"/>
		
			<use xlink:href="#Icône_xA0_1_xA0_-_Supprimer"  width="62" height="51.3" id="XMLID_37_" x="-31" y="-25.6" transform="matrix(0.3707 0 0 -0.3707 690.8464 384.0171)" style="overflow:visible;"/>
	</g>
	<g id="VirtualBox">
		<text transform="matrix(1 0 0 1 481.9192 56.2431)" class="st15 st16 st17">VirtualBox</text>
		
			<use xlink:href="#Icône_xA0_3_xA0_-_Coche"  width="92.7" height="76.8" id="XMLID_18_" x="-61.7" y="-54.4" transform="matrix(1 0 0 -1 556.887 74.3843)" style="overflow:visible;"/>
		
			<use xlink:href="#Icône_xA0_3_xA0_-_Coche"  width="92.7" height="76.8" id="XMLID_35_" x="-61.7" y="-54.4" transform="matrix(1 0 0 -1 556.054 205.8396)" style="overflow:visible;"/>
		
			<use xlink:href="#Icône_xA0_3_xA0_-_Coche"  width="92.7" height="76.8" id="XMLID_34_" x="-61.7" y="-54.4" transform="matrix(1 0 0 -1 555.887 227.3843)" style="overflow:visible;"/>
		
			<use xlink:href="#Icône_xA0_3_xA0_-_Coche"  width="92.7" height="76.8" id="XMLID_33_" x="-61.7" y="-54.4" transform="matrix(1 0 0 -1 555.887 250.3843)" style="overflow:visible;"/>
		
			<use xlink:href="#Icône_xA0_3_xA0_-_Coche"  width="92.7" height="76.8" id="XMLID_32_" x="-61.7" y="-54.4" transform="matrix(1 0 0 -1 555.887 293.3843)" style="overflow:visible;"/>
		
			<use xlink:href="#Icône_xA0_3_xA0_-_Coche"  width="92.7" height="76.8" id="XMLID_31_" x="-61.7" y="-54.4" transform="matrix(1 0 0 -1 555.887 315.3843)" style="overflow:visible;"/>
		
			<use xlink:href="#Icône_xA0_3_xA0_-_Coche"  width="92.7" height="76.8" id="XMLID_30_" x="-61.7" y="-54.4" transform="matrix(1 0 0 -1 555.887 337.3843)" style="overflow:visible;"/>
		
			<use xlink:href="#Icône_xA0_3_xA0_-_Coche"  width="92.7" height="76.8" id="XMLID_29_" x="-61.7" y="-54.4" transform="matrix(1 0 0 -1 555.887 359.3843)" style="overflow:visible;"/>
		
			<use xlink:href="#Icône_xA0_3_xA0_-_Coche"  width="92.7" height="76.8" id="XMLID_28_" x="-61.7" y="-54.4" transform="matrix(1 0 0 -1 555.887 381.3843)" style="overflow:visible;"/>
		<text transform="matrix(1 0 0 1 479.9727 79.5674)" class="st16 st17">Open Source</text>
		<text transform="matrix(1 0 0 1 632.9187 143.0811)"><tspan x="0" y="0" class="st16 st17">QCOW2 / QCOW</tspan><tspan x="0" y="14.4" class="st16 st17">VDI (VirtualBox)</tspan><tspan x="0" y="28.8" class="st16 st17">VMDK (VmWare)</tspan><tspan x="0" y="43.2" class="st16 st17">VHD (Windows Virtual PC)</tspan><tspan x="0" y="57.6" class="st16 st17">Cloop (Knoppix)</tspan><tspan x="0" y="72" class="st16 st17">Raw Format</tspan></text>
	</g>
	<g id="VMware">
		<text transform="matrix(1 0 0 1 275.5946 56.2431)" class="st15 st16 st17">VMWare Workstation</text>
		
			<use xlink:href="#Icône_xA0_3_xA0_-_Coche"  width="92.7" height="76.8" id="XMLID_9_" x="-61.7" y="-54.4" transform="matrix(1 0 0 -1 379.887 74.3843)" style="overflow:visible;"/>
		
			<use xlink:href="#Icône_xA0_3_xA0_-_Coche"  width="92.7" height="76.8" id="XMLID_8_" x="-61.7" y="-54.4" transform="matrix(1 0 0 -1 379.054 205.8396)" style="overflow:visible;"/>
		
			<use xlink:href="#Icône_xA0_3_xA0_-_Coche"  width="92.7" height="76.8" id="XMLID_7_" x="-61.7" y="-54.4" transform="matrix(1 0 0 -1 378.887 227.3843)" style="overflow:visible;"/>
		
			<use xlink:href="#Icône_xA0_3_xA0_-_Coche"  width="92.7" height="76.8" id="XMLID_6_" x="-61.7" y="-54.4" transform="matrix(1 0 0 -1 348.887 250.3843)" style="overflow:visible;"/>
		
			<use xlink:href="#Icône_xA0_3_xA0_-_Coche"  width="92.7" height="76.8" id="XMLID_5_" x="-61.7" y="-54.4" transform="matrix(1 0 0 -1 378.887 293.3843)" style="overflow:visible;"/>
		
			<use xlink:href="#Icône_xA0_3_xA0_-_Coche"  width="92.7" height="76.8" id="XMLID_4_" x="-61.7" y="-54.4" transform="matrix(1 0 0 -1 378.887 315.3843)" style="overflow:visible;"/>
		
			<use xlink:href="#Icône_xA0_3_xA0_-_Coche"  width="92.7" height="76.8" id="XMLID_3_" x="-61.7" y="-54.4" transform="matrix(1 0 0 -1 378.887 337.3843)" style="overflow:visible;"/>
		
			<use xlink:href="#Icône_xA0_3_xA0_-_Coche"  width="92.7" height="76.8" id="XMLID_2_" x="-61.7" y="-54.4" transform="matrix(1 0 0 -1 378.887 359.3843)" style="overflow:visible;"/>
		
			<use xlink:href="#Icône_xA0_3_xA0_-_Coche"  width="92.7" height="76.8" id="XMLID_1_" x="-61.7" y="-54.4" transform="matrix(1 0 0 -1 378.887 381.3843)" style="overflow:visible;"/>
		<text transform="matrix(1 0 0 1 293.5405 78.5947)" class="st16 st17">Propriétaire</text>
		<text transform="matrix(1 0 0 1 271.7295 145.0811)"><tspan x="0" y="0" class="st16 st17">VMDK (VmWare)</tspan><tspan x="0" y="14.4" class="st16 st17">VHD (Windows Virtual PC)</tspan></text>
		<text transform="matrix(1 0 0 1 316.811 299.4863)" class="st16 st17">(VMWare Fusion)</text>
	</g>
	<text transform="matrix(1 0 0 1 95.1622 433.4869)" class="st16 st17">DOS</text>
	<text transform="matrix(1 0 0 1 95.1622 409.1621)" class="st16 st17">Solaris</text>
	<text transform="matrix(1 0 0 1 95.1622 388.2161)" class="st16 st17">Mac OS</text>
	<text transform="matrix(1 0 0 1 95.1622 364.9463)" class="st16 st17">Linux</text>
	<text transform="matrix(1 0 0 1 94.1622 344.9728)" class="st16 st17">Windows</text>
	<text transform="matrix(1 0 0 1 74.5674 321.3242)" class="st1 st16 st17">Plateformes Virtualisables</text>
	<text transform="matrix(1 0 0 1 94.1622 299.0269)" class="st16 st17">Mac OS</text>
	<text transform="matrix(1 0 0 1 94.1622 276.7295)" class="st16 st17">Linux</text>
	<text transform="matrix(1 0 0 1 94.1622 255.7838)" class="st16 st17">Windows</text>
	<text transform="matrix(1 0 0 1 74.5676 233.4863)" class="st1 st16 st17">Plateformes d’installations</text>
	<text transform="matrix(1 0 0 1 94.1622 143.189)" class="st16 st17">Formats de stockage</text>
	<text transform="matrix(1 0 0 1 93.4864 122.2286)" class="st16 st17">Interface graphique</text>
	<text transform="matrix(1 0 0 1 74.5675 100.9007)" class="st1 st16 st17">Fonctionnalités</text>
	<text transform="matrix(1 0 0 1 74.5676 78.2213)" class="st1 st16 st17">Licence</text>
</g>
</svg>
