<?xml version="1.0" encoding="utf-8"?>
<!-- Generator: Adobe Illustrator 22.0.1, SVG Export Plug-In . SVG Version: 6.00 Build 0)  -->
<svg version="1.1" xmlns="http://www.w3.org/2000/svg" xmlns:xlink="http://www.w3.org/1999/xlink" x="0px" y="0px"
	 viewBox="0 0 841.9 595.3" style="enable-background:new 0 0 841.9 595.3;" xml:space="preserve">
<style type="text/css">
	.st0{fill:none;stroke:#000000;stroke-miterlimit:10;}
	.st1{font-family:'MyriadPro-Regular';}
	.st2{font-size:12px;}
</style>
<g id="Physique">
	<line class="st0" x1="68" y1="490" x2="734" y2="490"/>
	<text transform="matrix(1 0 0 1 573 521)" class="st1 st2">Réseau LILLE1</text>
	<line class="st0" x1="87" y1="241" x2="753" y2="241"/>
	<text transform="matrix(1 0 0 1 35 229)"><tspan x="0" y="0" class="st1 st2">Réseau virtuelle</tspan><tspan x="0" y="14.4" class="st1 st2">interne</tspan><tspan x="0" y="28.8" class="st1 st2">machine physique</tspan></text>
	<rect id="Machine_physique" x="261.4" y="339.4" class="st0" width="70.9" height="70.9"/>
	<text transform="matrix(1 0 0 1 275.5264 374.8661)"><tspan x="0" y="0" class="st1 st2">Machine</tspan><tspan x="-1.3" y="14.4" class="st1 st2">Physique</tspan></text>
	<line class="st0" x1="297" y1="241" x2="297" y2="339.3"/>
	<line class="st0" x1="297" y1="410.3" x2="297" y2="490"/>
	<g id="DNS_DHCP_1_">
		<text id="DNS_DHCP" transform="matrix(1 0 0 1 671.5916 407.3661)"><tspan x="0" y="0" class="st1 st2">DNS</tspan><tspan x="-3.7" y="14.4" class="st1 st2">DHCP</tspan></text>
		<polygon class="st0" points="699.6,382.7 665.4,382.7 648.3,412.4 665.4,442 699.6,442 716.7,412.4 		"/>
		<line class="st0" x1="682.5" y1="443.5" x2="682.5" y2="490"/>
	</g>
</g>
<g id="Virtuelle">
	<g id="DNS_DHCP_2_">
		<text id="DNS_DHCP_3_" transform="matrix(1 0 0 1 355.2358 288.6372)"><tspan x="0" y="0" class="st1 st2">DNS</tspan><tspan x="-3.7" y="14.4" class="st1 st2">DHCP</tspan></text>
		<polygon class="st0" points="336,273 336,307.2 365.6,324.4 395.3,307.2 395.3,273 365.6,255.9 		"/>
		<line class="st0" x1="297" y1="290.1" x2="336" y2="290.1"/>
	</g>
	<g id="VM1_1_">
		<line class="st0" x1="208.4" y1="170.3" x2="208.4" y2="241"/>
		<rect id="VM1" x="173" y="99.4" class="st0" width="70.9" height="70.9"/>
		<text transform="matrix(1 0 0 1 196 137)" class="st1 st2">VM1</text>
	</g>
	<g id="VM2_1_">
		<line class="st0" x1="436.4" y1="170.3" x2="436.4" y2="241"/>
		<rect id="VM2" x="401" y="99.4" class="st0" width="70.9" height="70.9"/>
		<text transform="matrix(1 0 0 1 425 134.8661)" class="st1 st2">VM2</text>
	</g>
	<g id="VM3_1_">
		<line class="st0" x1="653.6" y1="170.3" x2="653.6" y2="241"/>
		<rect id="VM3" x="618.1" y="99.4" class="st0" width="70.9" height="70.9"/>
		<text transform="matrix(1 0 0 1 643 136.9999)" class="st1 st2">VM3</text>
	</g>
</g>
</svg>
